# Blender 4.1.1
# www.blender.org
mtllib block.mtl
o Cube
v -1.000000 1.000000 1.000000
v -1.000000 -1.000000 1.000000
v -1.000000 1.000000 -1.000000
v -1.000000 -1.000000 -1.000000
v 1.000000 1.000000 1.000000
v 1.000000 -1.000000 1.000000
v 1.000000 1.000000 -1.000000
v 1.000000 -1.000000 -1.000000
vn -0.0000 1.0000 -0.0000
vn -0.0000 -0.0000 -1.0000
vn 1.0000 -0.0000 -0.0000
vn -0.0000 -1.0000 -0.0000
vn -1.0000 -0.0000 -0.0000
vn -0.0000 -0.0000 1.0000
vt 0.269925 0.500000
vt 0.269925 0.269925
vt 0.500000 0.269925
vt 0.500000 0.500000
vt 0.730075 0.500000
vt 0.730075 0.269925
vt 0.500000 0.039850
vt 0.269925 0.039850
vt 0.269925 0.960150
vt 0.269925 0.730075
vt 0.500000 0.730075
vt 0.500000 0.960150
vt 0.039850 0.269925
vt 0.039850 0.500000
s 0
usemtl Material
f 1/1/1 5/2/1 7/3/1 3/4/1
f 4/5/2 3/4/2 7/3/2 8/6/2
f 8/7/3 7/3/3 5/2/3 6/8/3
f 6/9/4 2/10/4 4/11/4 8/12/4
f 2/10/5 1/1/5 3/4/5 4/11/5
f 6/13/6 5/2/6 1/1/6 2/14/6
