# Blender 4.1.1
# www.blender.org
mtllib carryRope.mtl
o Cube
v -0.236846 0.400000 0.200000
v -0.400000 0.236846 0.200000
v -0.400000 -0.236846 0.200000
v -0.236846 -0.400000 0.200000
v -0.400000 0.236846 -0.200000
v -0.236846 0.400000 -0.200000
v -0.236846 -0.400000 -0.200000
v -0.400000 -0.236846 -0.200000
v 0.400000 0.236846 0.200000
v 0.236846 0.400000 0.200000
v 0.236846 -0.400000 0.200000
v 0.400000 -0.236846 0.200000
v 0.236846 0.400000 -0.200000
v 0.400000 0.236846 -0.200000
v 0.400000 -0.236846 -0.200000
v 0.236846 -0.400000 -0.200000
vn -0.0000 -1.0000 -0.0000
vn 1.0000 -0.0000 -0.0000
vn -0.0000 -0.0000 -1.0000
vn -0.0000 1.0000 -0.0000
vn -1.0000 -0.0000 -0.0000
vn 0.7071 -0.7071 -0.0000
vn -0.7071 0.7071 -0.0000
vn 0.7071 0.7071 -0.0000
vn -0.7071 -0.7071 -0.0000
vn -0.0000 -0.0000 1.0000
vt 0.324014 0.500000
vt 0.175986 0.750000
vt 0.175986 0.500000
vt 0.574014 0.000000
vt 0.425986 0.250000
vt 0.425986 0.000000
vt 0.625000 0.800986
vt 0.574014 1.000000
vt 0.375000 0.949014
vt 0.824014 0.500000
vt 0.675986 0.750000
vt 0.675986 0.500000
vt 0.574014 0.500000
vt 0.425986 0.750000
vt 0.425986 0.500000
vt 0.125000 0.500000
vt 0.625000 0.250000
vt 0.625000 0.000000
vt 0.324014 0.750000
vt 0.625000 0.300986
vt 0.375000 0.449014
vt 0.574014 0.250000
vt 0.375000 0.800986
vt 0.574014 0.750000
vt 0.625000 0.949014
vt 0.425986 1.000000
vt 0.824014 0.750000
vt 0.125000 0.750000
vt 0.375000 0.300986
vt 0.625000 0.449014
s 0
usemtl Material
f 4/1/1 16/2/1 11/3/1
f 14/4/2 12/5/2 15/6/2
f 6/7/3 14/8/3 16/9/3
f 10/10/4 6/11/4 1/12/4
f 2/13/5 8/14/5 3/15/5
f 16/2/6 12/16/6 11/3/6
f 6/11/7 2/13/7 1/12/7
f 10/17/8 14/4/8 13/18/8
f 4/1/9 8/14/9 7/19/9
f 10/20/10 2/13/10 4/21/10
f 4/1/1 7/19/1 16/2/1
f 14/4/2 9/22/2 12/5/2
f 16/9/3 7/23/3 8/14/3
f 8/14/3 5/24/3 6/7/3
f 6/7/3 13/25/3 14/8/3
f 14/8/3 15/26/3 16/9/3
f 16/9/3 8/14/3 6/7/3
f 10/10/4 13/27/4 6/11/4
f 2/13/5 5/24/5 8/14/5
f 16/2/6 15/28/6 12/16/6
f 6/11/7 5/24/7 2/13/7
f 10/17/8 9/22/8 14/4/8
f 4/1/9 3/15/9 8/14/9
f 4/21/10 11/29/10 12/5/10
f 12/5/10 9/22/10 10/20/10
f 10/20/10 1/30/10 2/13/10
f 2/13/10 3/15/10 4/21/10
f 4/21/10 12/5/10 10/20/10
