# Blender 4.1.1
# www.blender.org
mtllib gate.mtl
o 立方体.004
v 0.200000 1.000000 0.200000
v 0.200000 -1.000000 0.200000
v 0.200000 1.000000 -0.200000
v 0.200000 -1.000000 -0.200000
v -0.200000 1.000000 0.200000
v -0.200000 -1.000000 0.200000
v -0.200000 1.000000 -0.200000
v -0.200000 -1.000000 -0.200000
v 1.000000 -0.249945 0.100000
v 1.000000 -0.649945 0.100000
v 1.000000 -0.249945 -0.100000
v 1.000000 -0.649945 -0.100000
v -1.000000 -0.249945 0.100000
v -1.000000 -0.649945 0.100000
v -1.000000 -0.249945 -0.100000
v -1.000000 -0.649945 -0.100000
v 1.000000 0.548970 0.100000
v 1.000000 0.148970 0.100000
v 1.000000 0.548970 -0.100000
v 1.000000 0.148970 -0.100000
v -1.000000 0.548970 0.100000
v -1.000000 0.148970 0.100000
v -1.000000 0.548970 -0.100000
v -1.000000 0.148970 -0.100000
v 0.850000 1.000000 0.200000
v 0.850000 -1.000000 0.200000
v 0.850000 1.000000 -0.200000
v 0.850000 -1.000000 -0.200000
v 0.450000 1.000000 0.200000
v 0.450000 -1.000000 0.200000
v 0.450000 1.000000 -0.200000
v 0.450000 -1.000000 -0.200000
v -0.450000 1.000000 0.200000
v -0.450000 -1.000000 0.200000
v -0.450000 1.000000 -0.200000
v -0.450000 -1.000000 -0.200000
v -0.850000 1.000000 0.200000
v -0.850000 -1.000000 0.200000
v -0.850000 1.000000 -0.200000
v -0.850000 -1.000000 -0.200000
vn 1.0000 -0.0000 -0.0000
vn -0.0000 -0.0000 -1.0000
vn -1.0000 -0.0000 -0.0000
vn -0.0000 -0.0000 1.0000
vn -0.0000 1.0000 -0.0000
vn -0.0000 -1.0000 -0.0000
vt 0.612247 0.379223
vt 0.824656 0.421705
vt 0.612247 0.421705
vt 0.612247 0.464187
vt 0.824656 0.464187
vt 0.612247 0.506668
vt 0.824656 0.506668
vt 0.612247 0.549150
vt 0.569766 0.506668
vt 0.569766 0.464187
vt 0.867137 0.464187
vt 0.400195 0.930234
vt 0.415215 0.885176
vt 0.430234 0.900195
vt 0.385176 0.915215
vt 0.265020 0.734981
vt 0.234980 0.765020
vt 0.250000 0.719961
vt 0.219961 0.750000
vt 0.099805 0.569766
vt 0.400195 0.569766
vt 0.415215 0.584785
vt 0.084785 0.915215
vt 0.069766 0.400195
vt 0.114824 0.415215
vt 0.099805 0.430234
vt 0.084785 0.385176
vt 0.265020 0.265020
vt 0.234980 0.234980
vt 0.280039 0.250000
vt 0.250000 0.219961
vt 0.430234 0.099805
vt 0.430234 0.400195
vt 0.415215 0.415215
vt 0.084785 0.084785
vt 0.612247 0.688681
vt 0.824656 0.731163
vt 0.612247 0.731163
vt 0.612247 0.773645
vt 0.824656 0.773645
vt 0.612247 0.816126
vt 0.824656 0.816126
vt 0.612247 0.858608
vt 0.569766 0.816126
vt 0.569766 0.773645
vt 0.867137 0.773645
vt 0.612247 0.069766
vt 0.824656 0.112247
vt 0.612247 0.112247
vt 0.612247 0.154729
vt 0.824656 0.154729
vt 0.612247 0.197211
vt 0.824656 0.197211
vt 0.612247 0.239692
vt 0.569766 0.197211
vt 0.569766 0.154729
vt 0.867137 0.154729
vt 0.824656 0.379223
vt 0.824656 0.549150
vt 0.867137 0.506668
vt 0.069766 0.599805
vt 0.069766 0.900195
vt 0.400195 0.069766
vt 0.099805 0.069766
vt 0.824656 0.688681
vt 0.824656 0.858608
vt 0.867137 0.816126
vt 0.824656 0.069766
vt 0.824656 0.239692
vt 0.867137 0.197211
s 0
usemtl マテリアル
f 1/1/1 4/2/1 3/3/1
f 4/2/2 7/4/2 3/3/2
f 8/5/3 5/6/3 7/4/3
f 6/7/4 1/8/4 5/6/4
f 7/4/5 1/9/5 3/10/5
f 4/11/6 6/7/6 8/5/6
f 10/12/1 11/13/1 9/14/1
f 12/15/2 15/16/2 11/13/2
f 16/17/3 13/18/3 15/16/3
f 14/19/4 9/20/4 13/18/4
f 15/16/5 9/21/5 11/22/5
f 12/23/6 14/19/6 16/17/6
f 18/24/1 19/25/1 17/26/1
f 20/27/2 23/28/2 19/25/2
f 24/29/3 21/30/3 23/28/3
f 22/31/4 17/32/4 21/30/4
f 23/28/5 17/33/5 19/34/5
f 20/35/6 22/31/6 24/29/6
f 25/36/1 28/37/1 27/38/1
f 28/37/2 31/39/2 27/38/2
f 32/40/3 29/41/3 31/39/3
f 30/42/4 25/43/4 29/41/4
f 31/39/5 25/44/5 27/45/5
f 28/46/6 30/42/6 32/40/6
f 33/47/1 36/48/1 35/49/1
f 36/48/2 39/50/2 35/49/2
f 40/51/3 37/52/3 39/50/3
f 38/53/4 33/54/4 37/52/4
f 39/50/5 33/55/5 35/56/5
f 36/57/6 38/53/6 40/51/6
f 1/1/1 2/58/1 4/2/1
f 4/2/2 8/5/2 7/4/2
f 8/5/3 6/7/3 5/6/3
f 6/7/4 2/59/4 1/8/4
f 7/4/5 5/6/5 1/9/5
f 4/11/6 2/60/6 6/7/6
f 10/12/1 12/15/1 11/13/1
f 12/15/2 16/17/2 15/16/2
f 16/17/3 14/19/3 13/18/3
f 14/19/4 10/61/4 9/20/4
f 15/16/5 13/18/5 9/21/5
f 12/23/6 10/62/6 14/19/6
f 18/24/1 20/27/1 19/25/1
f 20/27/2 24/29/2 23/28/2
f 24/29/3 22/31/3 21/30/3
f 22/31/4 18/63/4 17/32/4
f 23/28/5 21/30/5 17/33/5
f 20/35/6 18/64/6 22/31/6
f 25/36/1 26/65/1 28/37/1
f 28/37/2 32/40/2 31/39/2
f 32/40/3 30/42/3 29/41/3
f 30/42/4 26/66/4 25/43/4
f 31/39/5 29/41/5 25/44/5
f 28/46/6 26/67/6 30/42/6
f 33/47/1 34/68/1 36/48/1
f 36/48/2 40/51/2 39/50/2
f 40/51/3 38/53/3 37/52/3
f 38/53/4 34/69/4 33/54/4
f 39/50/5 37/52/5 33/55/5
f 36/57/6 34/70/6 38/53/6
