# Blender 4.3.2
# www.blender.org
mtllib Artillery.mtl
o Cube
v 0.884265 -0.884265 0.884265
v 0.884265 0.884265 0.884265
v -0.675612 -0.884265 0.884265
v -0.463590 0.884265 0.768891
v 0.884265 -0.884265 -0.884265
v 0.884265 0.884265 -0.884265
v -0.675612 -0.884265 -0.884265
v -0.463590 0.884265 -0.768891
v -0.323965 -0.884265 0.884265
v -0.164791 0.884265 0.884265
v -0.323965 -0.884265 -0.884265
v -0.164791 0.884265 -0.884265
v -0.729710 -0.884265 0.000000
v -0.682601 0.884265 0.000000
v 0.884265 -0.884265 0.000000
v 0.884265 0.884265 0.000000
v 0.000000 0.884265 0.000000
v -0.271981 -0.884265 0.000000
v -0.682601 0.884265 -0.442132
v 0.884265 -0.884265 -0.442132
v 0.000000 0.884265 -0.442132
v -0.729710 -0.884265 -0.442132
v 0.884265 0.884265 -0.442132
v -0.271981 -0.884265 -0.442132
v -0.464927 0.884265 -0.778572
v 0.884265 -0.884265 -0.663199
v 0.000000 0.884265 -0.663199
v -0.729710 -0.884265 -0.663199
v 0.884265 0.884265 -0.663199
v -0.271981 -0.884265 -0.663199
v -0.729710 -0.884265 0.442132
v 0.884265 0.884265 0.442132
v -0.271981 -0.884265 0.442132
v -0.682601 0.884265 0.442132
v 0.884265 -0.884265 0.442132
v 0.000000 0.884265 0.442132
v -0.473607 0.884265 0.768891
v -0.456310 -0.884265 -0.884265
v -0.456310 -0.884265 0.884265
v -0.473607 0.884265 -0.768891
v -0.456330 -0.884265 0.000000
v -0.631504 0.884265 0.000000
v -0.631504 0.884265 -0.442132
v -0.456330 -0.884265 -0.442132
v -0.466770 0.884265 -0.778572
v -0.456330 -0.884265 -0.663199
v -0.456330 -0.884265 0.442132
v -0.631504 0.884265 0.442132
v 0.442132 -0.884265 0.884265
v 0.442132 0.884265 -0.884265
v 0.442132 0.884265 0.884265
v 0.442132 -0.884265 -0.884265
v 0.442132 0.884265 0.000000
v 0.442132 -0.884265 0.000000
v 0.442132 0.884265 -0.442132
v 0.442132 -0.884265 -0.442132
v 0.442132 0.884265 -0.663199
v 0.442132 -0.884265 -0.663199
v 0.442132 -0.884265 0.442132
v 0.442132 0.884265 0.442132
v -0.682601 0.884265 0.221066
v 0.884265 -0.884265 0.221066
v 0.000000 0.884265 0.221066
v -0.729710 -0.884265 0.221066
v 0.884265 0.884265 0.221066
v -0.271981 -0.884265 0.221066
v -0.631504 0.884265 0.221066
v -0.456330 -0.884265 0.221066
v 0.442132 0.884265 0.221066
v 0.442132 -0.884265 0.221066
v -0.729710 -0.884265 0.663199
v 0.884265 0.884265 0.663199
v -0.271981 -0.884265 0.663199
v -0.464927 0.884265 0.778572
v 0.884265 -0.884265 0.663199
v 0.000000 0.884265 0.663199
v -0.456330 -0.884265 0.663199
v -0.466770 0.884265 0.778572
v 0.442132 -0.884265 0.663199
v 0.442132 0.884265 0.663199
v -0.729710 -0.884265 -0.221066
v 0.884265 0.884265 -0.221066
v -0.271981 -0.884265 -0.221066
v -0.682601 0.884265 -0.221066
v 0.884265 -0.884265 -0.221066
v 0.000000 0.884265 -0.221066
v -0.456330 -0.884265 -0.221066
v -0.631504 0.884265 -0.221066
v 0.442132 -0.884265 -0.221066
v 0.442132 0.884265 -0.221066
v 0.884265 0.000000 0.884265
v -0.719667 0.000000 0.884265
v -0.719667 0.000000 -0.884265
v 0.884265 0.000000 -0.884265
v -0.164791 0.000000 -0.884265
v -0.164791 0.000000 0.884265
v 0.884265 0.000000 0.000000
v 0.884265 0.000000 -0.442132
v -0.884265 0.000000 -0.442132
v 0.884265 0.000000 -0.663199
v -0.884265 0.000000 -0.663199
v -0.884265 0.000000 0.442132
v 0.884265 0.000000 0.442132
v -0.441939 0.000000 -0.884265
v -0.441939 0.000000 0.884265
v 0.442132 0.000000 0.884265
v 0.442132 0.000000 -0.884265
v 0.884265 0.000000 0.221066
v -0.884265 0.000000 0.663199
v 0.884265 0.000000 0.663199
v 0.884265 0.000000 -0.221066
v 0.884265 0.442132 0.884265
v -0.719667 0.442132 0.884265
v -0.719667 0.442132 -0.884265
v 0.884265 0.442132 -0.884265
v -0.164791 0.442132 -0.884265
v -0.164791 0.442132 0.884265
v 0.884265 0.442132 0.000000
v -0.884265 0.442132 0.000000
v 0.884265 0.442132 -0.442132
v -0.884265 0.442132 -0.442132
v 0.884265 0.442132 -0.663199
v -0.884265 0.442132 -0.663199
v -0.884265 0.442132 0.442132
v 0.884265 0.442132 0.442132
v -0.441939 0.442132 -0.884265
v -0.441939 0.442132 0.884265
v 0.442132 0.442132 0.884265
v 0.442132 0.442132 -0.884265
v 0.884265 0.442132 0.221066
v -0.884265 0.442132 0.221066
v -0.884265 0.442132 0.663199
v 0.884265 0.442132 0.663199
v -0.884265 0.442132 -0.221066
v 0.884265 0.442132 -0.221066
v -0.719667 -0.442132 0.884265
v -0.719667 -0.442132 -0.884265
v 0.884265 -0.442132 -0.884265
v -0.164791 -0.442132 -0.884265
v -0.164791 -0.442132 0.884265
v 0.884265 -0.442132 0.000000
v -0.884265 -0.442132 0.000000
v 0.884265 -0.442132 -0.442132
v -0.884265 -0.442132 -0.442132
v 0.884265 -0.442132 -0.663199
v -0.884265 -0.442132 -0.663199
v -0.884265 -0.442132 0.442132
v 0.884265 -0.442132 0.442132
v -0.441939 -0.442132 -0.884265
v -0.441939 -0.442132 0.884265
v 0.442132 -0.442132 0.884265
v 0.442132 -0.442132 -0.884265
v 0.884265 -0.442132 0.221066
v -0.884265 -0.442132 0.221066
v -0.884265 -0.442132 0.663199
v 0.884265 -0.442132 0.663199
v -0.884265 -0.442132 -0.221066
v 0.884265 -0.442132 -0.221066
v 0.884265 -0.442132 0.884265
v -1.405663 0.212998 0.000000
v -1.405663 -0.000000 0.000000
v -1.405663 0.252816 -0.253261
v -1.405663 -0.000000 -0.253261
v -1.405663 0.252816 0.253261
v -1.405663 -0.000000 0.253261
v -1.405663 0.212998 0.086811
v -1.405663 -0.000000 0.086811
v -1.405663 0.212998 -0.086811
v -1.405663 -0.000000 -0.086811
v -1.405663 -0.212998 0.000000
v -1.405663 -0.252816 -0.253261
v -1.405663 -0.252816 0.253261
v -1.405663 -0.212998 0.086811
v -1.405663 -0.212998 -0.086811
v -1.405663 0.252816 0.126630
v -1.405663 -0.000000 0.126630
v -1.405663 0.252816 -0.126630
v -1.405663 -0.000000 -0.126630
v -1.405663 0.252816 0.000000
v -1.405663 -0.252816 0.126630
v -1.405663 -0.252816 -0.126630
v -1.405663 -0.252816 0.000000
v -1.405663 0.212998 0.086811
v -1.405663 -0.000000 0.086811
v -1.405663 0.212998 -0.086811
v -1.405663 -0.000000 -0.086811
v -1.405663 0.212998 0.000000
v -1.405663 -0.212998 0.086811
v -1.405663 -0.212998 -0.086811
v -1.405663 -0.212998 0.000000
vn -0.0000 0.2525 0.9676
vn -0.6743 0.5150 -0.5293
vn -0.0000 -0.0000 -1.0000
vn 1.0000 -0.0000 -0.0000
vn -0.0000 -1.0000 -0.0000
vn -0.0000 1.0000 -0.0000
vn -0.1918 0.1202 -0.9740
vn -0.0000 -0.0000 1.0000
vn -0.9098 0.4150 -0.0000
vn -0.7964 0.5187 -0.3109
vn -0.7964 0.5187 0.3109
vn -0.0000 0.2525 -0.9676
vn -0.1918 0.1202 0.9740
vn -0.6743 0.5150 0.5293
vn -0.3406 -0.0000 0.9402
vn -0.8021 -0.0000 0.5972
vn -0.3413 0.9400 -0.0000
vn -1.0000 -0.0000 -0.0000
vn -0.3413 -0.9400 -0.0000
vn -0.8021 -0.0000 -0.5972
vn -0.8787 -0.1974 -0.4346
vn -0.9440 -0.3300 -0.0000
vn -0.8787 -0.1974 0.4346
vn -0.3406 -0.0000 -0.9402
vt 0.562500 0.187500
vt 0.625000 0.187500
vt 0.625000 0.250000
vt 0.562500 0.250000
vt 0.562500 0.468750
vt 0.625000 0.468750
vt 0.625000 0.500000
vt 0.562500 0.500000
vt 0.562500 0.687500
vt 0.625000 0.687500
vt 0.625000 0.750000
vt 0.562500 0.750000
vt 0.562500 0.968750
vt 0.625000 0.968750
vt 0.625000 1.000000
vt 0.562500 1.000000
vt 0.343750 0.687500
vt 0.375000 0.687500
vt 0.375000 0.750000
vt 0.343750 0.750000
vt 0.843750 0.687500
vt 0.875000 0.687500
vt 0.875000 0.750000
vt 0.843750 0.750000
vt 0.843750 0.562500
vt 0.875000 0.562500
vt 0.875000 0.625000
vt 0.843750 0.625000
vt 0.343750 0.562500
vt 0.375000 0.562500
vt 0.375000 0.625000
vt 0.343750 0.625000
vt 0.562500 0.562500
vt 0.625000 0.562500
vt 0.625000 0.625000
vt 0.562500 0.625000
vt 0.562500 0.062500
vt 0.625000 0.062500
vt 0.625000 0.125000
vt 0.562500 0.125000
vt 0.218750 0.562500
vt 0.250000 0.562500
vt 0.250000 0.625000
vt 0.218750 0.625000
vt 0.718750 0.562500
vt 0.750000 0.562500
vt 0.750000 0.625000
vt 0.718750 0.625000
vt 0.718750 0.687500
vt 0.750000 0.687500
vt 0.750000 0.750000
vt 0.718750 0.750000
vt 0.218750 0.687500
vt 0.250000 0.687500
vt 0.250000 0.750000
vt 0.218750 0.750000
vt 0.562500 0.843750
vt 0.625000 0.843750
vt 0.625000 0.875000
vt 0.562500 0.875000
vt 0.562500 0.343750
vt 0.625000 0.343750
vt 0.625000 0.375000
vt 0.562500 0.375000
vt 0.562500 0.781250
vt 0.625000 0.781250
vt 0.625000 0.812500
vt 0.562500 0.812500
vt 0.656250 0.687500
vt 0.687500 0.687500
vt 0.687500 0.750000
vt 0.656250 0.750000
vt 0.656250 0.562500
vt 0.687500 0.562500
vt 0.687500 0.625000
vt 0.656250 0.625000
vt 0.281250 0.562500
vt 0.312500 0.562500
vt 0.312500 0.625000
vt 0.281250 0.625000
vt 0.281250 0.687500
vt 0.312500 0.687500
vt 0.312500 0.750000
vt 0.281250 0.750000
vt 0.562500 0.406250
vt 0.625000 0.406250
vt 0.625000 0.437500
vt 0.562500 0.437500
vt 0.562500 0.281250
vt 0.625000 0.281250
vt 0.625000 0.312500
vt 0.562500 0.312500
vt 0.156250 0.687500
vt 0.187500 0.687500
vt 0.187500 0.750000
vt 0.156250 0.750000
vt 0.156250 0.562500
vt 0.187500 0.562500
vt 0.187500 0.625000
vt 0.156250 0.625000
vt 0.781250 0.562500
vt 0.812500 0.562500
vt 0.812500 0.625000
vt 0.781250 0.625000
vt 0.781250 0.687500
vt 0.812500 0.687500
vt 0.812500 0.750000
vt 0.781250 0.750000
vt 0.562500 0.906250
vt 0.625000 0.906250
vt 0.625000 0.937500
vt 0.562500 0.937500
vt 0.781250 0.500000
vt 0.812500 0.500000
vt 0.156250 0.500000
vt 0.187500 0.500000
vt 0.312500 0.500000
vt 0.343750 0.500000
vt 0.656250 0.500000
vt 0.281250 0.500000
vt 0.687500 0.500000
vt 0.718750 0.500000
vt 0.750000 0.500000
vt 0.218750 0.500000
vt 0.250000 0.500000
vt 0.375000 0.500000
vt 0.843750 0.500000
vt 0.875000 0.500000
vt 0.562500 0.000000
vt 0.625000 0.000000
vt 0.125000 0.625000
vt 0.125000 0.687500
vt 0.125000 0.500000
vt 0.125000 0.562500
vt 0.125000 0.750000
vt 0.437500 0.812500
vt 0.500000 0.812500
vt 0.500000 0.843750
vt 0.437500 0.843750
vt 0.437500 0.312500
vt 0.500000 0.312500
vt 0.437500 0.937500
vt 0.500000 0.937500
vt 0.500000 0.968750
vt 0.437500 0.968750
vt 0.437500 0.250000
vt 0.500000 0.250000
vt 0.500000 0.281250
vt 0.437500 0.281250
vt 0.437500 0.875000
vt 0.500000 0.875000
vt 0.500000 0.906250
vt 0.437500 0.906250
vt 0.437500 0.625000
vt 0.500000 0.625000
vt 0.500000 0.687500
vt 0.437500 0.687500
vt 0.437500 0.000000
vt 0.500000 0.000000
vt 0.500000 0.062500
vt 0.437500 0.062500
vt 0.437500 0.125000
vt 0.500000 0.125000
vt 0.500000 0.187500
vt 0.437500 0.187500
vt 0.437500 0.500000
vt 0.500000 0.500000
vt 0.500000 0.562500
vt 0.437500 0.562500
vt 0.437500 0.437500
vt 0.500000 0.437500
vt 0.500000 0.468750
vt 0.437500 0.468750
vt 0.437500 0.750000
vt 0.500000 0.750000
vt 0.500000 0.781250
vt 0.437500 0.781250
vt 0.437500 0.375000
vt 0.437500 0.343750
vt 0.500000 1.000000
vt 0.437500 1.000000
vt 0.437500 0.406250
vt 0.375000 0.187500
vt 0.375000 0.250000
vt 0.375000 0.468750
vt 0.375000 0.968750
vt 0.375000 1.000000
vt 0.375000 0.062500
vt 0.375000 0.125000
vt 0.375000 0.843750
vt 0.375000 0.875000
vt 0.375000 0.343750
vt 0.375000 0.375000
vt 0.375000 0.781250
vt 0.375000 0.812500
vt 0.375000 0.406250
vt 0.375000 0.437500
vt 0.375000 0.281250
vt 0.375000 0.312500
vt 0.375000 0.906250
vt 0.375000 0.937500
vt 0.375000 0.000000
vt 0.447344 0.375000
vt 0.500000 0.375000
vt 0.500000 0.396423
vt 0.447344 0.396423
vt 0.500000 0.343750
vt 0.500000 0.406250
vt 0.447344 0.353577
vt 0.500000 0.353577
vt 0.552656 0.375000
vt 0.552656 0.396423
vt 0.552656 0.353577
s 0
usemtl Material.001
f 127/1/1 37/2/1 4/3/1 113/4/1
f 123/5/2 25/6/2 8/7/2 114/8/2
f 129/9/3 50/10/3 6/11/3 115/12/3
f 133/13/4 72/14/4 2/15/4 112/16/4
f 58/17/5 52/18/5 5/19/5 26/20/5
f 80/21/6 51/22/6 2/23/6 72/24/6
f 78/25/6 37/26/6 10/27/6 76/28/6
f 46/29/5 38/30/5 11/31/5 30/32/5
f 126/33/7 40/34/7 12/35/7 116/36/7
f 128/37/8 51/38/8 10/39/8 117/40/8
f 68/41/5 41/42/5 18/43/5 66/44/5
f 88/45/6 42/46/6 17/47/6 86/48/6
f 90/49/6 53/50/6 16/51/6 82/52/6
f 70/53/5 54/54/5 15/55/5 62/56/5
f 135/57/4 82/58/4 16/59/4 118/60/4
f 131/61/9 61/62/9 14/63/9 119/64/9
f 122/65/4 29/66/4 23/67/4 120/68/4
f 57/69/6 55/70/6 23/71/6 29/72/6
f 45/73/6 43/74/6 21/75/6 27/76/6
f 87/77/5 44/78/5 24/79/5 83/80/5
f 89/81/5 56/82/5 20/83/5 85/84/5
f 134/85/9 84/86/9 19/87/9 121/88/9
f 40/34/6 45/73/6 27/76/6 12/35/6
f 50/10/6 57/69/6 29/72/6 6/11/6
f 115/12/4 6/11/4 29/66/4 122/65/4
f 44/78/5 46/29/5 30/32/5 24/79/5
f 56/82/5 58/17/5 26/20/5 20/83/5
f 121/88/10 19/87/10 25/6/10 123/5/10
f 132/89/11 74/90/11 34/91/11 124/92/11
f 79/93/5 59/94/5 35/95/5 75/96/5
f 77/97/5 47/98/5 33/99/5 73/100/5
f 67/101/6 48/102/6 36/103/6 63/104/6
f 69/105/6 60/106/6 32/107/6 65/108/6
f 130/109/4 65/110/4 32/111/4 125/112/4
f 61/113/6 34/114/6 48/102/6 67/101/6
f 71/115/5 31/116/5 47/98/5 77/97/5
f 22/117/5 28/118/5 46/29/5 44/78/5
f 8/7/6 25/119/6 45/73/6 40/34/6
f 81/120/5 22/117/5 44/78/5 87/77/5
f 25/119/6 19/121/6 43/74/6 45/73/6
f 84/122/6 14/123/6 42/46/6 88/45/6
f 64/124/5 13/125/5 41/42/5 68/41/5
f 114/8/12 8/7/12 40/34/12 126/33/12
f 28/118/5 7/126/5 38/30/5 46/29/5
f 74/127/6 4/128/6 37/26/6 78/25/6
f 117/40/13 10/39/13 37/2/13 127/1/13
f 63/104/6 36/103/6 60/106/6 69/105/6
f 73/100/5 33/99/5 59/94/5 79/93/5
f 24/79/5 30/32/5 58/17/5 56/82/5
f 12/35/6 27/76/6 57/69/6 50/10/6
f 83/80/5 24/79/5 56/82/5 89/81/5
f 27/76/6 21/75/6 55/70/6 57/69/6
f 66/44/5 18/43/5 54/54/5 70/53/5
f 86/48/6 17/47/6 53/50/6 90/49/6
f 112/129/8 2/130/8 51/38/8 128/37/8
f 76/28/6 10/27/6 51/22/6 80/21/6
f 30/32/5 11/31/5 52/18/5 58/17/5
f 116/36/3 12/35/3 50/10/3 129/9/3
f 33/99/5 66/44/5 70/53/5 59/94/5
f 17/47/6 63/104/6 69/105/6 53/50/6
f 31/116/5 64/124/5 68/41/5 47/98/5
f 14/123/6 61/113/6 67/101/6 42/46/6
f 118/60/4 16/59/4 65/110/4 130/109/4
f 53/50/6 69/105/6 65/108/6 16/51/6
f 42/46/6 67/101/6 63/104/6 17/47/6
f 124/92/9 34/91/9 61/62/9 131/61/9
f 59/94/5 70/53/5 62/56/5 35/95/5
f 47/98/5 68/41/5 66/44/5 33/99/5
f 36/103/6 76/28/6 80/21/6 60/106/6
f 9/131/5 73/100/5 79/93/5 49/132/5
f 34/114/6 74/127/6 78/25/6 48/102/6
f 3/133/5 71/115/5 77/97/5 39/134/5
f 39/134/5 77/97/5 73/100/5 9/131/5
f 49/132/5 79/93/5 75/96/5 1/135/5
f 113/4/14 4/3/14 74/90/14 132/89/14
f 48/102/6 78/25/6 76/28/6 36/103/6
f 60/106/6 80/21/6 72/24/6 32/107/6
f 125/112/4 32/111/4 72/14/4 133/13/4
f 21/75/6 86/48/6 90/49/6 55/70/6
f 18/43/5 83/80/5 89/81/5 54/54/5
f 19/121/6 84/122/6 88/45/6 43/74/6
f 13/125/5 81/120/5 87/77/5 41/42/5
f 119/64/9 14/63/9 84/86/9 134/85/9
f 54/54/5 89/81/5 85/84/5 15/55/5
f 41/42/5 87/77/5 83/80/5 18/43/5
f 120/68/4 23/67/4 82/58/4 135/57/4
f 55/70/6 90/49/6 82/52/6 23/71/6
f 43/74/6 88/45/6 86/48/6 21/75/6
f 143/136/4 98/137/4 111/138/4 158/139/4
f 147/140/15 102/141/15 165/141/15 172/140/15
f 148/142/4 103/143/4 110/144/4 156/145/4
f 136/146/16 92/147/16 109/148/16 155/149/16
f 119/64/17 134/85/17 177/85/17 179/64/17
f 141/150/4 97/151/4 108/152/4 153/153/4
f 139/154/3 95/155/3 107/156/3 152/157/3
f 159/158/8 91/159/8 106/160/8 151/161/8
f 140/162/8 96/163/8 105/164/8 150/165/8
f 137/166/3 93/167/3 104/168/3 149/169/3
f 153/153/4 108/152/4 103/143/4 148/142/4
f 155/149/18 109/148/18 102/141/18 147/140/18
f 144/170/18 99/171/18 101/172/18 146/173/18
f 138/174/4 94/175/4 100/176/4 145/177/4
f 142/178/19 154/179/19 180/179/19 182/178/19
f 145/177/4 100/176/4 98/137/4 143/136/4
f 124/92/17 131/61/17 175/61/17 164/92/17
f 158/139/4 111/138/4 97/151/4 141/150/4
f 151/161/8 106/160/8 96/163/8 140/162/8
f 149/169/3 104/168/3 95/155/3 139/154/3
f 156/145/4 110/144/4 91/180/4 159/181/4
f 152/157/3 107/156/3 94/175/3 138/174/3
f 146/173/20 101/172/20 93/167/20 137/166/20
f 150/165/8 105/164/8 92/147/8 136/146/8
f 98/137/4 120/68/4 135/57/4 111/138/4
f 134/85/17 121/88/17 162/88/17 177/85/17
f 103/143/4 125/112/4 133/13/4 110/144/4
f 92/147/16 113/4/16 132/89/16 109/148/16
f 144/170/19 157/182/19 181/182/19 171/170/19
f 97/151/4 118/60/4 130/109/4 108/152/4
f 95/155/3 116/36/3 129/9/3 107/156/3
f 91/159/8 112/129/8 128/37/8 106/160/8
f 96/163/8 117/40/8 127/1/8 105/164/8
f 93/167/3 114/8/3 126/33/3 104/168/3
f 108/152/4 130/109/4 125/112/4 103/143/4
f 109/148/18 132/89/18 124/92/18 102/141/18
f 99/171/18 121/88/18 123/5/18 101/172/18
f 94/175/4 115/12/4 122/65/4 100/176/4
f 131/61/17 119/64/17 179/64/17 175/61/17
f 100/176/4 122/65/4 120/68/4 98/137/4
f 154/179/19 147/140/19 172/140/19 180/179/19
f 111/138/4 135/57/4 118/60/4 97/151/4
f 106/160/8 128/37/8 117/40/8 96/163/8
f 104/168/3 126/33/3 116/36/3 95/155/3
f 110/144/4 133/13/4 112/16/4 91/180/4
f 107/156/3 129/9/3 115/12/3 94/175/3
f 101/172/20 123/5/20 114/8/20 93/167/20
f 105/164/8 127/1/8 113/4/8 92/147/8
f 39/183/8 150/165/8 136/146/8 3/184/8
f 28/185/21 146/173/21 137/166/21 7/126/21
f 52/18/3 152/157/3 138/174/3 5/19/3
f 75/186/4 156/145/4 159/181/4 1/187/4
f 38/30/3 149/169/3 139/154/3 11/31/3
f 49/188/8 151/161/8 140/162/8 9/189/8
f 85/190/4 158/139/4 141/150/4 15/191/4
f 64/192/22 154/179/22 142/178/22 13/193/22
f 26/194/4 145/177/4 143/136/4 20/195/4
f 81/196/22 157/182/22 144/170/22 22/197/22
f 5/19/4 138/174/4 145/177/4 26/194/4
f 22/197/22 144/170/22 146/173/22 28/185/22
f 71/198/22 155/149/22 147/140/22 31/199/22
f 62/200/4 153/153/4 148/142/4 35/201/4
f 7/126/3 137/166/3 149/169/3 38/30/3
f 9/189/8 140/162/8 150/165/8 39/183/8
f 1/202/8 159/158/8 151/161/8 49/188/8
f 11/31/3 139/154/3 152/157/3 52/18/3
f 15/191/4 141/150/4 153/153/4 62/200/4
f 31/199/22 147/140/22 154/179/22 64/192/22
f 3/184/23 136/146/23 155/149/23 71/198/23
f 35/201/4 148/142/4 156/145/4 75/186/4
f 13/193/22 142/178/22 157/182/22 81/196/22
f 20/195/4 143/136/4 158/139/4 85/190/4
f 190/203/18 161/204/18 186/205/18 174/206/18
f 172/140/18 165/141/18 176/207/18 180/179/18
f 181/182/18 178/208/18 163/171/18 171/170/18
f 173/209/18 184/210/18 161/204/18 190/203/18
f 161/204/18 187/211/18 168/212/18 186/205/18
f 165/141/18 164/92/18 175/61/18 176/207/18
f 178/208/18 177/85/18 162/88/18 163/171/18
f 184/210/18 166/213/18 187/211/18 161/204/18
f 102/141/15 124/92/15 164/92/15 165/141/15
f 99/171/24 144/170/24 171/170/24 163/171/24
f 121/88/24 99/171/24 163/171/24 162/88/24
f 157/182/19 142/178/19 182/178/19 181/182/19
f 183/213/18 167/210/18 176/207/18 175/61/18
f 169/205/18 185/212/18 177/85/18 178/208/18
f 185/212/18 160/211/18 179/64/18 177/85/18
f 160/211/18 183/213/18 175/61/18 179/64/18
f 167/210/18 188/209/18 180/179/18 176/207/18
f 189/206/18 169/205/18 178/208/18 181/182/18
f 188/209/18 170/203/18 182/178/18 180/179/18
f 170/203/18 189/206/18 181/182/18 182/178/18
f 166/213/6 184/210/6 167/210/6 183/213/6
f 186/205/6 168/212/6 185/212/6 169/205/6
f 168/212/6 187/211/6 160/211/6 185/212/6
f 187/211/6 166/213/6 183/213/6 160/211/6
f 184/210/6 173/209/6 188/209/6 167/210/6
f 174/206/6 186/205/6 169/205/6 189/206/6
f 173/209/6 190/203/6 170/203/6 188/209/6
f 190/203/6 174/206/6 189/206/6 170/203/6
